<svg xmlns="http://www.w3.org/2000/svg" style="display:none">
    <symbol id="account_balance_wallet" viewBox="0 0 24 24">
        <path d="M3 7.5A2.5 2.5 0 0 1 5.5 5h10A2.5 2.5 0 0 1 18 7.5V9h1.5A1.5 1.5 0 0 1 21 10.5v6a1.5 1.5 0 0 1-1.5 1.5H5.5A2.5 2.5 0 0 1 3 15.5z"/>
        <path d="M18 9H7a2 2 0 1 1 0-4"/>
        <circle cx="17.5" cy="13.5" r="1"/>
    </symbol>
    <symbol id="add" viewBox="0 0 24 24">
        <path d="M12 5v14M5 12h14"/>
    </symbol>
    <symbol id="badge" viewBox="0 0 24 24">
        <path d="M7 5h10a2 2 0 0 1 2 2v8a2 2 0 0 1-2 2H7a2 2 0 0 1-2-2V7a2 2 0 0 1 2-2z"/>
        <path d="M9 10h6M9 13h4"/>
        <circle cx="16.5" cy="16.5" r="2.5"/>
    </symbol>
    <symbol id="calendar_today" viewBox="0 0 24 24">
        <path d="M7 4v3M17 4v3M4 9h16"/>
        <rect x="4" y="5.5" width="16" height="14.5" rx="2"/>
    </symbol>
    <symbol id="cancel" viewBox="0 0 24 24">
        <circle cx="12" cy="12" r="9"/>
        <path d="M9 9l6 6M15 9l-6 6"/>
    </symbol>
    <symbol id="check" viewBox="0 0 24 24">
        <path d="M5 12.5l4.2 4.2L19 7"/>
    </symbol>
    <symbol id="check_circle" viewBox="0 0 24 24">
        <circle cx="12" cy="12" r="9"/>
        <path d="M8 12.5l2.8 2.8L16.5 9"/>
    </symbol>
    <symbol id="chevron_left" viewBox="0 0 24 24">
        <path d="M14.5 6.5L9 12l5.5 5.5"/>
    </symbol>
    <symbol id="chevron_right" viewBox="0 0 24 24">
        <path d="M9.5 6.5L15 12l-5.5 5.5"/>
    </symbol>
    <symbol id="close" viewBox="0 0 24 24">
        <path d="M6 6l12 12M18 6L6 18"/>
    </symbol>
    <symbol id="corporate_fare" viewBox="0 0 24 24">
        <path d="M4 20h16"/>
        <path d="M6 20V7l6-3 6 3v13"/>
        <path d="M9 9h2M9 12h2M13 9h2M13 12h2M11 20v-4h2v4"/>
    </symbol>
    <symbol id="dashboard" viewBox="0 0 24 24">
        <rect x="4" y="4" width="7" height="7" rx="1.5"/>
        <rect x="13" y="4" width="7" height="5" rx="1.5"/>
        <rect x="4" y="13" width="7" height="7" rx="1.5"/>
        <rect x="13" y="11" width="7" height="9" rx="1.5"/>
    </symbol>
    <symbol id="domain" viewBox="0 0 24 24">
        <path d="M3 20h18"/>
        <path d="M5 20V6h14v14"/>
        <path d="M8 9h2M8 12h2M8 15h2M14 9h2M14 12h2M14 15h2"/>
    </symbol>
    <symbol id="download" viewBox="0 0 24 24">
        <path d="M12 4v10"/>
        <path d="M8.5 10.5L12 14l3.5-3.5"/>
        <path d="M5 18h14"/>
    </symbol>
    <symbol id="error" viewBox="0 0 24 24">
        <circle cx="12" cy="12" r="9"/>
        <path d="M12 8v5"/>
        <circle cx="12" cy="16.5" r="0.75"/>
    </symbol>
    <symbol id="event_available" viewBox="0 0 24 24">
        <path d="M7 4v3M17 4v3M4 9h16"/>
        <rect x="4" y="5.5" width="16" height="14.5" rx="2"/>
        <path d="M9 13l2 2 4-4"/>
    </symbol>
    <symbol id="expand_more" viewBox="0 0 24 24">
        <path d="M6.5 9.5L12 15l5.5-5.5"/>
    </symbol>
    <symbol id="expand_less" viewBox="0 0 24 24">
        <path d="M6.5 14.5L12 9l5.5 5.5"/>
    </symbol>
    <symbol id="fact_check" viewBox="0 0 24 24">
        <rect x="5" y="4" width="14" height="16" rx="2"/>
        <path d="M9 9l1.5 1.5L13 8M9 13l1.5 1.5L13 12M14.5 9H16M14.5 13H16"/>
    </symbol>
    <symbol id="file_download" viewBox="0 0 24 24">
        <path d="M8 4h6l4 4v10a2 2 0 0 1-2 2H8a2 2 0 0 1-2-2V6a2 2 0 0 1 2-2z"/>
        <path d="M14 4v4h4"/>
        <path d="M12 10v5M9.5 12.5L12 15l2.5-2.5"/>
    </symbol>
    <symbol id="filter_list" viewBox="0 0 24 24">
        <path d="M5 7h14M8 12h8M11 17h2"/>
    </symbol>
    <symbol id="flight_takeoff" viewBox="0 0 24 24">
        <path d="M3 18h18"/>
        <path d="M4 14l7-2 3-6 2 1-1 5 4 2v2z"/>
    </symbol>
    <symbol id="group_off" viewBox="0 0 24 24">
        <circle cx="9" cy="9" r="2.5"/>
        <circle cx="16" cy="8" r="2"/>
        <path d="M4.5 18a4.5 4.5 0 0 1 9 0M13 18a3.5 3.5 0 0 1 5 0"/>
        <path d="M4 4l16 16"/>
    </symbol>
    <symbol id="groups" viewBox="0 0 24 24">
        <circle cx="9" cy="9" r="2.5"/>
        <circle cx="16" cy="8.5" r="2"/>
        <path d="M4.5 18a4.5 4.5 0 0 1 9 0M13 17.5a3.5 3.5 0 0 1 6 0"/>
    </symbol>
    <symbol id="history" viewBox="0 0 24 24">
        <path d="M4 12a8 8 0 1 0 2.3-5.6"/>
        <path d="M4 5v5h5"/>
        <path d="M12 8v4l2.5 1.5"/>
    </symbol>
    <symbol id="icon" viewBox="0 0 24 24">
        <rect x="5" y="5" width="14" height="14" rx="3"/>
    </symbol>
    <symbol id="info" viewBox="0 0 24 24">
        <circle cx="12" cy="12" r="9"/>
        <path d="M12 11.5v4"/>
        <circle cx="12" cy="8" r="0.75"/>
    </symbol>
    <symbol id="logout" viewBox="0 0 24 24">
        <path d="M10 6H6a2 2 0 0 0-2 2v8a2 2 0 0 0 2 2h4"/>
        <path d="M13 8l4 4-4 4"/>
        <path d="M9 12h8"/>
    </symbol>
    <symbol id="notifications" viewBox="0 0 24 24">
        <path d="M6 16.5h12l-1.5-2v-3.5a4.5 4.5 0 1 0-9 0v3.5z"/>
        <path d="M10 18a2 2 0 0 0 4 0"/>
    </symbol>
    <symbol id="pending_actions" viewBox="0 0 24 24">
        <rect x="5" y="4" width="10" height="16" rx="2"/>
        <circle cx="17.5" cy="14.5" r="3.5"/>
        <path d="M9 8h4M9 11h4M17.5 12.8v1.9l1.3.8"/>
    </symbol>
    <symbol id="person_add" viewBox="0 0 24 24">
        <circle cx="10" cy="8" r="3"/>
        <path d="M4.5 18a5.5 5.5 0 0 1 11 0"/>
        <path d="M18 8v6M15 11h6"/>
    </symbol>
    <symbol id="person_off" viewBox="0 0 24 24">
        <circle cx="11" cy="8" r="3"/>
        <path d="M5 18a6 6 0 0 1 12 0"/>
        <path d="M4 4l16 16"/>
    </symbol>
    <symbol id="person_remove" viewBox="0 0 24 24">
        <circle cx="10" cy="8" r="3"/>
        <path d="M4.5 18a5.5 5.5 0 0 1 11 0"/>
        <path d="M15 11h6"/>
    </symbol>
    <symbol id="person_search" viewBox="0 0 24 24">
        <circle cx="10" cy="8" r="3"/>
        <path d="M4.5 18a5.5 5.5 0 0 1 8.5-4.6"/>
        <circle cx="17.5" cy="15.5" r="2.5"/>
        <path d="M19.2 17.2L21 19"/>
    </symbol>
    <symbol id="rate_review" viewBox="0 0 24 24">
        <path d="M5 6.5A2.5 2.5 0 0 1 7.5 4h9A2.5 2.5 0 0 1 19 6.5v6A2.5 2.5 0 0 1 16.5 15H10l-4 4v-4.5A2.5 2.5 0 0 1 5 12.5z"/>
        <path d="M12 7.5l.9 1.9 2.1.3-1.5 1.5.3 2.1-1.8-1-1.8 1 .3-2.1-1.5-1.5 2.1-.3z"/>
    </symbol>
    <symbol id="remove" viewBox="0 0 24 24">
        <circle cx="12" cy="12" r="9"/>
        <path d="M8 12h8"/>
    </symbol>
    <symbol id="schedule" viewBox="0 0 24 24">
        <circle cx="12" cy="12" r="9"/>
        <path d="M12 7.5v5l3 1.8"/>
    </symbol>
    <symbol id="search" viewBox="0 0 24 24">
        <circle cx="11" cy="11" r="5.5"/>
        <path d="M16 16l4 4"/>
    </symbol>
    <symbol id="sort" viewBox="0 0 24 24">
        <path d="M7 6v12M7 18l-2.5-2.5M7 18l2.5-2.5M17 18V6M17 6l-2.5 2.5M17 6l2.5 2.5"/>
    </symbol>
    <symbol id="swap_horiz" viewBox="0 0 24 24">
        <path d="M7 8h10M13.5 4.5L17 8l-3.5 3.5M17 16H7M10.5 12.5L7 16l3.5 3.5"/>
    </symbol>
    <symbol id="task_alt" viewBox="0 0 24 24">
        <circle cx="12" cy="12" r="9"/>
        <path d="M8 12.5l2.5 2.5L16 9"/>
    </symbol>
    <symbol id="trending_up" viewBox="0 0 24 24">
        <path d="M4 16l6-6 4 4 6-7"/>
        <path d="M15 7h5v5"/>
    </symbol>
    <symbol id="account_tree" viewBox="0 0 24 24">
        <path d="M12 5v5M12 10H6v4M12 10h6v4"/>
        <rect x="9" y="3" width="6" height="4" rx="1"/>
        <rect x="3" y="14" width="6" height="5" rx="1"/>
        <rect x="15" y="14" width="6" height="5" rx="1"/>
    </symbol>
    <symbol id="add_circle" viewBox="0 0 24 24">
        <circle cx="12" cy="12" r="9"/>
        <path d="M12 8v8M8 12h8"/>
    </symbol>
    <symbol id="admin_panel_settings" viewBox="0 0 24 24">
        <path d="M12 3l7 3v5c0 4.5-2.8 7.7-7 10-4.2-2.3-7-5.5-7-10V6z"/>
        <path d="M9.5 12.2l1.7 1.7 3.3-3.4"/>
    </symbol>
    <symbol id="arrow_downward" viewBox="0 0 24 24">
        <path d="M12 5v12"/>
        <path d="M8.5 13.5L12 17l3.5-3.5"/>
    </symbol>
    <symbol id="arrow_back" viewBox="0 0 24 24">
        <path d="M19 12H5"/>
        <path d="M10 7l-5 5 5 5"/>
    </symbol>
    <symbol id="arrow_forward" viewBox="0 0 24 24">
        <path d="M5 12h14"/>
        <path d="M14 8.5l3.5 3.5-3.5 3.5"/>
    </symbol>
    <symbol id="arrow_upward" viewBox="0 0 24 24">
        <path d="M12 19V7"/>
        <path d="M8.5 10.5L12 7l3.5 3.5"/>
    </symbol>
    <symbol id="block" viewBox="0 0 24 24">
        <circle cx="12" cy="12" r="9"/>
        <path d="M8 16l8-8"/>
    </symbol>
    <symbol id="dataset" viewBox="0 0 24 24">
        <ellipse cx="12" cy="6.5" rx="6.5" ry="2.5"/>
        <path d="M5.5 6.5v5c0 1.4 2.9 2.5 6.5 2.5s6.5-1.1 6.5-2.5v-5"/>
        <path d="M5.5 11.5v5c0 1.4 2.9 2.5 6.5 2.5s6.5-1.1 6.5-2.5v-5"/>
    </symbol>
    <symbol id="delete" viewBox="0 0 24 24">
        <path d="M6 7h12"/>
        <path d="M9 7V5h6v2"/>
        <path d="M8 7l.8 11h6.4L16 7"/>
        <path d="M10 10.5v4.5M14 10.5v4.5"/>
    </symbol>
    <symbol id="delete_forever" viewBox="0 0 24 24">
        <path d="M6 7h12"/>
        <path d="M9 7V5h6v2"/>
        <path d="M8 7l.8 11h6.4L16 7"/>
        <path d="M10 11l4 4M14 11l-4 4"/>
    </symbol>
    <symbol id="delete_sweep" viewBox="0 0 24 24">
        <path d="M4 6h11"/>
        <path d="M7 6V4h5v2"/>
        <path d="M6.5 6l.7 9h4.6"/>
        <path d="M16 15h4M18 13v4"/>
    </symbol>
    <symbol id="device_hub" viewBox="0 0 24 24">
        <rect x="10" y="4" width="4" height="4" rx="1"/>
        <rect x="4" y="16" width="4" height="4" rx="1"/>
        <rect x="16" y="16" width="4" height="4" rx="1"/>
        <path d="M12 8v4M12 12H6v4M12 12h6v4"/>
    </symbol>
    <symbol id="filter_alt_off" viewBox="0 0 24 24">
        <path d="M5 7h12l-5 6v4l-2 1v-5L6 8.2"/>
        <path d="M4 4l16 16"/>
    </symbol>
    <symbol id="group" viewBox="0 0 24 24">
        <circle cx="9" cy="9" r="2.5"/>
        <circle cx="16" cy="9" r="2.5"/>
        <path d="M3.5 18a5.5 5.5 0 0 1 11 0M9.5 18a5.5 5.5 0 0 1 11 0"/>
    </symbol>
    <symbol id="help_outline" viewBox="0 0 24 24">
        <circle cx="12" cy="12" r="9"/>
        <path d="M9.8 9.4a2.6 2.6 0 1 1 4.3 2c-.8.7-1.6 1.2-1.6 2.1"/>
        <circle cx="12" cy="16.8" r="0.75"/>
    </symbol>
    <symbol id="login" viewBox="0 0 24 24">
        <path d="M14 6h4a2 2 0 0 1 2 2v8a2 2 0 0 1-2 2h-4"/>
        <path d="M10 8l-4 4 4 4"/>
        <path d="M6 12h10"/>
    </symbol>
    <symbol id="lock" viewBox="0 0 24 24">
        <rect x="6" y="10" width="12" height="10" rx="2"/>
        <path d="M9 10V8a3 3 0 1 1 6 0v2"/>
    </symbol>
    <symbol id="mail" viewBox="0 0 24 24">
        <rect x="4" y="6" width="16" height="12" rx="2"/>
        <path d="M5.5 8l6.5 5 6.5-5"/>
    </symbol>
    <symbol id="manage_accounts" viewBox="0 0 24 24">
        <circle cx="9" cy="8" r="3"/>
        <path d="M4 18a5 5 0 0 1 10 0"/>
        <circle cx="17.5" cy="10.5" r="2.5"/>
        <path d="M17.5 7.5v1.5M17.5 12v1.5M15.5 10.5H14M21 10.5h-1.5"/>
    </symbol>
    <symbol id="person" viewBox="0 0 24 24">
        <circle cx="12" cy="8" r="3"/>
        <path d="M5 19a7 7 0 0 1 14 0"/>
    </symbol>
    <symbol id="receipt_long" viewBox="0 0 24 24">
        <path d="M7 4h10v16l-2-1.5L13 20l-1-1.5L11 20l-2-1.5L7 20z"/>
        <path d="M9.5 8H14.5M9.5 11.5H14.5M9.5 15H13"/>
    </symbol>
    <symbol id="save" viewBox="0 0 24 24">
        <path d="M5 5h11l3 3v11a2 2 0 0 1-2 2H7a2 2 0 0 1-2-2z"/>
        <path d="M8 5v5h7V5"/>
        <path d="M9 18h6"/>
    </symbol>
    <symbol id="settings" viewBox="0 0 24 24">
        <circle cx="12" cy="12" r="2.5"/>
        <path d="M12 4.5v2M12 17.5v2M4.5 12h2M17.5 12h2M6.8 6.8l1.4 1.4M15.8 15.8l1.4 1.4M17.2 6.8l-1.4 1.4M8.2 15.8l-1.4 1.4"/>
    </symbol>
    <symbol id="subdirectory_arrow_right" viewBox="0 0 24 24">
        <path d="M5 6v6a2 2 0 0 0 2 2h9"/>
        <path d="M13 11l3 3-3 3"/>
    </symbol>
    <symbol id="tag" viewBox="0 0 24 24">
        <path d="M4 12l8-8h7l1 7-8 8z"/>
        <circle cx="15.5" cy="8.5" r="1"/>
    </symbol>
    <symbol id="today" viewBox="0 0 24 24">
        <path d="M7 4v3M17 4v3M4 9h16"/>
        <rect x="4" y="5.5" width="16" height="14.5" rx="2"/>
        <rect x="8" y="12" width="4" height="4" rx="1"/>
    </symbol>
    <symbol id="unfold_more" viewBox="0 0 24 24">
        <path d="M9 8l3-3 3 3M9 16l3 3 3-3"/>
    </symbol>
    <symbol id="update" viewBox="0 0 24 24">
        <path d="M5 8V4h4"/>
        <path d="M5.5 5.5A8 8 0 1 1 4 12"/>
        <path d="M12 8v4l2.5 1.5"/>
    </symbol>
    <symbol id="verified" viewBox="0 0 24 24">
        <path d="M12 3l7 3v5c0 4.5-2.8 7.7-7 10-4.2-2.3-7-5.5-7-10V6z"/>
        <path d="M9.2 12.2l2 2L15 10.5"/>
    </symbol>
    <symbol id="visibility" viewBox="0 0 24 24">
        <path d="M3 12s3.5-6 9-6 9 6 9 6-3.5 6-9 6-9-6-9-6z"/>
        <circle cx="12" cy="12" r="2.5"/>
    </symbol>
    <symbol id="visibility_off" viewBox="0 0 24 24">
        <path d="M3 12s3.5-6 9-6 9 6 9 6-3.5 6-9 6-9-6-9-6z"/>
        <circle cx="12" cy="12" r="2.5"/>
        <path d="M4 4l16 16"/>
    </symbol>
    <symbol id="warning" viewBox="0 0 24 24">
        <path d="M12 4l8 14H4z"/>
        <path d="M12 9v4.5"/>
        <circle cx="12" cy="16.5" r="0.75"/>
    </symbol>
    <symbol id="auto_fix" viewBox="0 0 24 24">
        <path d="M12 4l1.4 3.6L17 9l-3.6 1.4L12 14l-1.4-3.6L7 9l3.6-1.4z"/>
        <path d="M18 14l.8 2.2L21 17l-2.2.8L18 20l-.8-2.2L15 17l2.2-.8z"/>
    </symbol>
    <symbol id="grade" viewBox="0 0 24 24">
        <path d="M12 4.5l2.2 4.5 5 .7-3.6 3.5.9 4.8L12 16l-4.5 2.5.9-4.8-3.6-3.5 5-.7z"/>
    </symbol>
    <symbol id="more_vert" viewBox="0 0 24 24">
        <circle cx="12" cy="6" r="1.5"/>
        <circle cx="12" cy="12" r="1.5"/>
        <circle cx="12" cy="18" r="1.5"/>
    </symbol>
    <symbol id="payments" viewBox="0 0 24 24">
        <rect x="4" y="6" width="16" height="12" rx="2"/>
        <path d="M4 10h16"/>
        <path d="M8 14h4"/>
    </symbol>
    <symbol id="security" viewBox="0 0 24 24">
        <path d="M12 3l7 3v5c0 4.5-2.8 7.7-7 10-4.2-2.3-7-5.5-7-10V6z"/>
        <path d="M12 9v4"/>
        <circle cx="12" cy="16" r="0.8"/>
    </symbol>
    <symbol id="stars" viewBox="0 0 24 24">
        <path d="M12 4.5l1.8 3.7 4.2.6-3 2.9.7 4.1L12 14l-3.7 1.8.7-4.1-3-2.9 4.2-.6z"/>
        <path d="M5 4.5l.8 1.6 1.7.2-1.2 1.2.3 1.7L5 8.4l-1.6.8.3-1.7L2.5 6.3l1.7-.2z"/>
        <path d="M19 14.5l.8 1.6 1.7.2-1.2 1.2.3 1.7-1.6-.8-1.6.8.3-1.7-1.2-1.2 1.7-.2z"/>
    </symbol>
    <symbol id="support_agent" viewBox="0 0 24 24">
        <path d="M6 12a6 6 0 1 1 12 0"/>
        <path d="M6 13H4v3h3"/>
        <path d="M18 16h2v-3h-2"/>
        <path d="M9 18h6"/>
        <path d="M9 11a3 3 0 0 1 6 0"/>
    </symbol>
    <symbol id="thumb_up" viewBox="0 0 24 24">
        <path d="M10 21H6a2 2 0 0 1-2-2v-7a2 2 0 0 1 2-2h4"/>
        <path d="M10 10l3-6 1 1v4h4a2 2 0 0 1 2 2l-1 6a2 2 0 0 1-2 2h-7z"/>
    </symbol>
    <symbol id="bolt" viewBox="0 0 24 24">
        <path d="M13 3L6 13h4l-1 8 9-12h-5z"/>
    </symbol>
    <symbol id="calendar_month" viewBox="0 0 24 24">
        <path d="M7 4v3M17 4v3M4 9h16"/>
        <rect x="4" y="5.5" width="16" height="14.5" rx="2"/>
        <path d="M8 12h3M13 12h3M8 16h3M13 16h3"/>
    </symbol>
    <symbol id="description" viewBox="0 0 24 24">
        <path d="M7 4h7l4 4v12H7z"/>
        <path d="M14 4v4h4"/>
        <path d="M9 12h6M9 15h6"/>
    </symbol>
    <symbol id="edit_note" viewBox="0 0 24 24">
        <path d="M4 7h8M4 11h8M4 15h5"/>
        <path d="M13.5 14.5l4.8-4.8a1.4 1.4 0 1 1 2 2l-4.8 4.8-3.5 1z"/>
    </symbol>
    <symbol id="inbox" viewBox="0 0 24 24">
        <path d="M4 6h16v10a2 2 0 0 1-2 2H6a2 2 0 0 1-2-2z"/>
        <path d="M4 13h4l2 3h4l2-3h4"/>
    </symbol>
    <symbol id="monitoring" viewBox="0 0 24 24">
        <path d="M5 19V8M10 19V5M15 19v-7M20 19v-11"/>
    </symbol>
    <symbol id="person_check" viewBox="0 0 24 24">
        <circle cx="10" cy="8" r="3"/>
        <path d="M4.5 18a5.5 5.5 0 0 1 8.5-4.7"/>
        <path d="M15 12.5l1.8 1.8 3.2-3.3"/>
    </symbol>
    <symbol id="progress_activity" viewBox="0 0 24 24">
        <path d="M12 4a8 8 0 1 0 8 8" />
        <path d="M12 2v4M22 12h-4M19.8 4.2l-2.8 2.8"/>
    </symbol>
    <symbol id="search_off" viewBox="0 0 24 24">
        <circle cx="11" cy="11" r="5.5"/>
        <path d="M16 16l4 4"/>
        <path d="M4 4l16 16"/>
    </symbol>
    <symbol id="send" viewBox="0 0 24 24">
        <path d="M4 20l16-8L4 4l2 6 7 2-7 2z"/>
    </symbol>
    <symbol id="trending_down" viewBox="0 0 24 24">
        <path d="M4 8l6 6 4-4 6 7"/>
        <path d="M15 17h5v-5"/>
    </symbol>
    <symbol id="timer" viewBox="0 0 24 24">
        <circle cx="12" cy="13" r="7"/>
        <path d="M12 13l3-2"/>
        <path d="M9 3h6"/>
        <path d="M12 6V3"/>
    </symbol>
    <symbol id="work" viewBox="0 0 24 24">
        <rect x="4" y="7" width="16" height="11" rx="2"/>
        <path d="M9 7V5h6v2"/>
        <path d="M4 11h16"/>
    </symbol>
    <symbol id="work_outline" viewBox="0 0 24 24">
        <rect x="4" y="7" width="16" height="11" rx="2"/>
        <path d="M9 7V5h6v2"/>
        <path d="M4 11h16"/>
    </symbol>
</svg>
