<svg xmlns="http://www.w3.org/2000/svg" style="display:none">
    <symbol id="account_balance_wallet" viewBox="0 0 24 24">
        <path d="M3 7.5A2.5 2.5 0 0 1 5.5 5h10A2.5 2.5 0 0 1 18 7.5V9h1.5A1.5 1.5 0 0 1 21 10.5v6a1.5 1.5 0 0 1-1.5 1.5H5.5A2.5 2.5 0 0 1 3 15.5z"/>
        <path d="M18 9H7a2 2 0 1 1 0-4"/>
        <circle cx="17.5" cy="13.5" r="1"/>
    </symbol>
    <symbol id="add" viewBox="0 0 24 24">
        <path d="M12 5v14M5 12h14"/>
    </symbol>
    <symbol id="apartment" viewBox="0 0 24 24">
        <path d="M3 20h18"/>
        <path d="M6 20V6h5v14M13 20V10h5v10"/>
        <path d="M8 9h1.5M8 12h1.5M8 15h1.5M15 13h1.5M15 16h1.5"/>
    </symbol>
    <symbol id="article" viewBox="0 0 24 24">
        <path d="M7 4h8l4 4v12a2 2 0 0 1-2 2H7a2 2 0 0 1-2-2V6a2 2 0 0 1 2-2z"/>
        <path d="M15 4v4h4"/>
        <path d="M9 12h6M9 15h6M9 9h3"/>
    </symbol>
    <symbol id="badge" viewBox="0 0 24 24">
        <path d="M7 5h10a2 2 0 0 1 2 2v8a2 2 0 0 1-2 2H7a2 2 0 0 1-2-2V7a2 2 0 0 1 2-2z"/>
        <path d="M9 10h6M9 13h4"/>
        <circle cx="16.5" cy="16.5" r="2.5"/>
    </symbol>
    <symbol id="calendar_today" viewBox="0 0 24 24">
        <path d="M7 4v3M17 4v3M4 9h16"/>
        <rect x="4" y="5.5" width="16" height="14.5" rx="2"/>
    </symbol>
    <symbol id="cancel" viewBox="0 0 24 24">
        <circle cx="12" cy="12" r="9"/>
        <path d="M9 9l6 6M15 9l-6 6"/>
    </symbol>
    <symbol id="check" viewBox="0 0 24 24">
        <path d="M5 12.5l4.2 4.2L19 7"/>
    </symbol>
    <symbol id="check_circle" viewBox="0 0 24 24">
        <circle cx="12" cy="12" r="9"/>
        <path d="M8 12.5l2.8 2.8L16.5 9"/>
    </symbol>
    <symbol id="chevron_left" viewBox="0 0 24 24">
        <path d="M14.5 6.5L9 12l5.5 5.5"/>
    </symbol>
    <symbol id="chevron_right" viewBox="0 0 24 24">
        <path d="M9.5 6.5L15 12l-5.5 5.5"/>
    </symbol>
    <symbol id="close" viewBox="0 0 24 24">
        <path d="M6 6l12 12M18 6L6 18"/>
    </symbol>
    <symbol id="corporate_fare" viewBox="0 0 24 24">
        <path d="M4 20h16"/>
        <path d="M6 20V7l6-3 6 3v13"/>
        <path d="M9 9h2M9 12h2M13 9h2M13 12h2M11 20v-4h2v4"/>
    </symbol>
    <symbol id="dashboard" viewBox="0 0 24 24">
        <rect x="4" y="4" width="7" height="7" rx="1.5"/>
        <rect x="13" y="4" width="7" height="5" rx="1.5"/>
        <rect x="4" y="13" width="7" height="7" rx="1.5"/>
        <rect x="13" y="11" width="7" height="9" rx="1.5"/>
    </symbol>
    <symbol id="domain" viewBox="0 0 24 24">
        <path d="M3 20h18"/>
        <path d="M5 20V6h14v14"/>
        <path d="M8 9h2M8 12h2M8 15h2M14 9h2M14 12h2M14 15h2"/>
    </symbol>
    <symbol id="download" viewBox="0 0 24 24">
        <path d="M12 4v10"/>
        <path d="M8.5 10.5L12 14l3.5-3.5"/>
        <path d="M5 18h14"/>
    </symbol>
    <symbol id="edit" viewBox="0 0 24 24">
        <path d="M4 20l4.5-1 9-9-3.5-3.5-9 9z"/>
        <path d="M12.5 7.5l3.5 3.5"/>
        <path d="M14 6l1.5-1.5a1.5 1.5 0 0 1 2.1 0l1 1a1.5 1.5 0 0 1 0 2.1L17 9"/>
    </symbol>
    <symbol id="error" viewBox="0 0 24 24">
        <circle cx="12" cy="12" r="9"/>
        <path d="M12 8v5"/>
        <circle cx="12" cy="16.5" r="0.75"/>
    </symbol>
    <symbol id="event_available" viewBox="0 0 24 24">
        <path d="M7 4v3M17 4v3M4 9h16"/>
        <rect x="4" y="5.5" width="16" height="14.5" rx="2"/>
        <path d="M9 13l2 2 4-4"/>
    </symbol>
    <symbol id="expand_more" viewBox="0 0 24 24">
        <path d="M6.5 9.5L12 15l5.5-5.5"/>
    </symbol>
    <symbol id="expand_less" viewBox="0 0 24 24">
        <path d="M6.5 14.5L12 9l5.5 5.5"/>
    </symbol>
    <symbol id="fact_check" viewBox="0 0 24 24">
        <rect x="5" y="4" width="14" height="16" rx="2"/>
        <path d="M9 9l1.5 1.5L13 8M9 13l1.5 1.5L13 12M14.5 9H16M14.5 13H16"/>
    </symbol>
    <symbol id="file_download" viewBox="0 0 24 24">
        <path d="M8 4h6l4 4v10a2 2 0 0 1-2 2H8a2 2 0 0 1-2-2V6a2 2 0 0 1 2-2z"/>
        <path d="M14 4v4h4"/>
        <path d="M12 10v5M9.5 12.5L12 15l2.5-2.5"/>
    </symbol>
    <symbol id="filter_list" viewBox="0 0 24 24">
        <path d="M5 7h14M8 12h8M11 17h2"/>
    </symbol>
    <symbol id="flight_takeoff" viewBox="0 0 24 24">
        <path d="M3 18h18"/>
        <path d="M4 14l7-2 3-6 2 1-1 5 4 2v2z"/>
    </symbol>
    <symbol id="group_off" viewBox="0 0 24 24">
        <circle cx="9" cy="9" r="2.5"/>
        <circle cx="16" cy="8" r="2"/>
        <path d="M4.5 18a4.5 4.5 0 0 1 9 0M13 18a3.5 3.5 0 0 1 5 0"/>
        <path d="M4 4l16 16"/>
    </symbol>
    <symbol id="groups" viewBox="0 0 24 24">
        <circle cx="9" cy="9" r="2.5"/>
        <circle cx="16" cy="8.5" r="2"/>
        <path d="M4.5 18a4.5 4.5 0 0 1 9 0M13 17.5a3.5 3.5 0 0 1 6 0"/>
    </symbol>
    <symbol id="history" viewBox="0 0 24 24">
        <path d="M4 12a8 8 0 1 0 2.3-5.6"/>
        <path d="M4 5v5h5"/>
        <path d="M12 8v4l2.5 1.5"/>
    </symbol>
    <symbol id="icon" viewBox="0 0 24 24">
        <rect x="5" y="5" width="14" height="14" rx="3"/>
    </symbol>
    <symbol id="info" viewBox="0 0 24 24">
        <circle cx="12" cy="12" r="9"/>
        <path d="M12 11.5v4"/>
        <circle cx="12" cy="8" r="0.75"/>
    </symbol>
    <symbol id="logout" viewBox="0 0 24 24">
        <path d="M10 6H6a2 2 0 0 0-2 2v8a2 2 0 0 0 2 2h4"/>
        <path d="M13 8l4 4-4 4"/>
        <path d="M9 12h8"/>
    </symbol>
    <symbol id="notifications" viewBox="0 0 24 24">
        <path d="M6 16.5h12l-1.5-2v-3.5a4.5 4.5 0 1 0-9 0v3.5z"/>
        <path d="M10 18a2 2 0 0 0 4 0"/>
    </symbol>
    <symbol id="open_in_new" viewBox="0 0 24 24">
        <path d="M14 5h5v5"/>
        <path d="M19 5l-8 8"/>
        <path d="M10 7H7a2 2 0 0 0-2 2v8a2 2 0 0 0 2 2h8a2 2 0 0 0 2-2v-3"/>
    </symbol>
    <symbol id="pending_actions" viewBox="0 0 24 24">
        <rect x="5" y="4" width="10" height="16" rx="2"/>
        <circle cx="17.5" cy="14.5" r="3.5"/>
        <path d="M9 8h4M9 11h4M17.5 12.8v1.9l1.3.8"/>
    </symbol>
    <symbol id="person_add" viewBox="0 0 24 24">
        <circle cx="10" cy="8" r="3"/>
        <path d="M4.5 18a5.5 5.5 0 0 1 11 0"/>
        <path d="M18 8v6M15 11h6"/>
    </symbol>
    <symbol id="person_off" viewBox="0 0 24 24">
        <circle cx="11" cy="8" r="3"/>
        <path d="M5 18a6 6 0 0 1 12 0"/>
        <path d="M4 4l16 16"/>
    </symbol>
    <symbol id="person_remove" viewBox="0 0 24 24">
        <circle cx="10" cy="8" r="3"/>
        <path d="M4.5 18a5.5 5.5 0 0 1 11 0"/>
        <path d="M15 11h6"/>
    </symbol>
    <symbol id="person_search" viewBox="0 0 24 24">
        <circle cx="10" cy="8" r="3"/>
        <path d="M4.5 18a5.5 5.5 0 0 1 8.5-4.6"/>
        <circle cx="17.5" cy="15.5" r="2.5"/>
        <path d="M19.2 17.2L21 19"/>
    </symbol>
    <symbol id="rate_review" viewBox="0 0 24 24">
        <path d="M5 6.5A2.5 2.5 0 0 1 7.5 4h9A2.5 2.5 0 0 1 19 6.5v6A2.5 2.5 0 0 1 16.5 15H10l-4 4v-4.5A2.5 2.5 0 0 1 5 12.5z"/>
        <path d="M12 7.5l.9 1.9 2.1.3-1.5 1.5.3 2.1-1.8-1-1.8 1 .3-2.1-1.5-1.5 2.1-.3z"/>
    </symbol>
    <symbol id="remove" viewBox="0 0 24 24">
        <circle cx="12" cy="12" r="9"/>
        <path d="M8 12h8"/>
    </symbol>
    <symbol id="schedule" viewBox="0 0 24 24">
        <circle cx="12" cy="12" r="9"/>
        <path d="M12 7.5v5l3 1.8"/>
    </symbol>
    <symbol id="search" viewBox="0 0 24 24">
        <circle cx="11" cy="11" r="5.5"/>
        <path d="M16 16l4 4"/>
    </symbol>
    <symbol id="sort" viewBox="0 0 24 24">
        <path d="M7 6v12M7 18l-2.5-2.5M7 18l2.5-2.5M17 18V6M17 6l-2.5 2.5M17 6l2.5 2.5"/>
    </symbol>
    <symbol id="swap_horiz" viewBox="0 0 24 24">
        <path d="M7 8h10M13.5 4.5L17 8l-3.5 3.5M17 16H7M10.5 12.5L7 16l3.5 3.5"/>
    </symbol>
    <symbol id="task_alt" viewBox="0 0 24 24">
        <circle cx="12" cy="12" r="9"/>
        <path d="M8 12.5l2.5 2.5L16 9"/>
    </symbol>
    <symbol id="trending_up" viewBox="0 0 24 24">
        <path d="M4 16l6-6 4 4 6-7"/>
        <path d="M15 7h5v5"/>
    </symbol>
    <symbol id="account_tree" viewBox="0 0 24 24">
        <path d="M12 5v5M12 10H6v4M12 10h6v4"/>
        <rect x="9" y="3" width="6" height="4" rx="1"/>
        <rect x="3" y="14" width="6" height="5" rx="1"/>
        <rect x="15" y="14" width="6" height="5" rx="1"/>
    </symbol>
    <symbol id="add_circle" viewBox="0 0 24 24">
        <circle cx="12" cy="12" r="9"/>
        <path d="M12 8v8M8 12h8"/>
    </symbol>
    <symbol id="admin_panel_settings" viewBox="0 0 24 24">
        <path d="M12 3l7 3v5c0 4.5-2.8 7.7-7 10-4.2-2.3-7-5.5-7-10V6z"/>
        <path d="M9.5 12.2l1.7 1.7 3.3-3.4"/>
    </symbol>
    <symbol id="arrow_downward" viewBox="0 0 24 24">
        <path d="M12 5v12"/>
        <path d="M8.5 13.5L12 17l3.5-3.5"/>
    </symbol>
    <symbol id="arrow_back" viewBox="0 0 24 24">
        <path d="M19 12H5"/>
        <path d="M10 7l-5 5 5 5"/>
    </symbol>
    <symbol id="arrow_forward" viewBox="0 0 24 24">
        <path d="M5 12h14"/>
        <path d="M14 8.5l3.5 3.5-3.5 3.5"/>
    </symbol>
    <symbol id="arrow_upward" viewBox="0 0 24 24">
        <path d="M12 19V7"/>
        <path d="M8.5 10.5L12 7l3.5 3.5"/>
    </symbol>
    <symbol id="block" viewBox="0 0 24 24">
        <circle cx="12" cy="12" r="9"/>
        <path d="M8 16l8-8"/>
    </symbol>
    <symbol id="dataset" viewBox="0 0 24 24">
        <ellipse cx="12" cy="6.5" rx="6.5" ry="2.5"/>
        <path d="M5.5 6.5v5c0 1.4 2.9 2.5 6.5 2.5s6.5-1.1 6.5-2.5v-5"/>
        <path d="M5.5 11.5v5c0 1.4 2.9 2.5 6.5 2.5s6.5-1.1 6.5-2.5v-5"/>
    </symbol>
    <symbol id="delete" viewBox="0 0 24 24">
        <path d="M6 7h12"/>
        <path d="M9 7V5h6v2"/>
        <path d="M8 7l.8 11h6.4L16 7"/>
        <path d="M10 10.5v4.5M14 10.5v4.5"/>
    </symbol>
    <symbol id="delete_forever" viewBox="0 0 24 24">
        <path d="M6 7h12"/>
        <path d="M9 7V5h6v2"/>
        <path d="M8 7l.8 11h6.4L16 7"/>
        <path d="M10 11l4 4M14 11l-4 4"/>
    </symbol>
    <symbol id="delete_sweep" viewBox="0 0 24 24">
        <path d="M4 6h11"/>
        <path d="M7 6V4h5v2"/>
        <path d="M6.5 6l.7 9h4.6"/>
        <path d="M16 15h4M18 13v4"/>
    </symbol>
    <symbol id="device_hub" viewBox="0 0 24 24">
        <rect x="10" y="4" width="4" height="4" rx="1"/>
        <rect x="4" y="16" width="4" height="4" rx="1"/>
        <rect x="16" y="16" width="4" height="4" rx="1"/>
        <path d="M12 8v4M12 12H6v4M12 12h6v4"/>
    </symbol>
    <symbol id="filter_alt_off" viewBox="0 0 24 24">
        <path d="M5 7h12l-5 6v4l-2 1v-5L6 8.2"/>
        <path d="M4 4l16 16"/>
    </symbol>
    <symbol id="group" viewBox="0 0 24 24">
        <circle cx="9" cy="9" r="2.5"/>
        <circle cx="16" cy="9" r="2.5"/>
        <path d="M3.5 18a5.5 5.5 0 0 1 11 0M9.5 18a5.5 5.5 0 0 1 11 0"/>
    </symbol>
    <symbol id="help_outline" viewBox="0 0 24 24">
        <circle cx="12" cy="12" r="9"/>
        <path d="M9.8 9.4a2.6 2.6 0 1 1 4.3 2c-.8.7-1.6 1.2-1.6 2.1"/>
        <circle cx="12" cy="16.8" r="0.75"/>
    </symbol>
    <symbol id="login" viewBox="0 0 24 24">
        <path d="M14 6h4a2 2 0 0 1 2 2v8a2 2 0 0 1-2 2h-4"/>
        <path d="M10 8l-4 4 4 4"/>
        <path d="M6 12h10"/>
    </symbol>
    <symbol id="lock" viewBox="0 0 24 24">
        <rect x="6" y="10" width="12" height="10" rx="2"/>
        <path d="M9 10V8a3 3 0 1 1 6 0v2"/>
    </symbol>
    <symbol id="mail" viewBox="0 0 24 24">
        <rect x="4" y="6" width="16" height="12" rx="2"/>
        <path d="M5.5 8l6.5 5 6.5-5"/>
    </symbol>
    <symbol id="manage_accounts" viewBox="0 0 24 24">
        <circle cx="9" cy="8" r="3"/>
        <path d="M4 18a5 5 0 0 1 10 0"/>
        <circle cx="17.5" cy="10.5" r="2.5"/>
        <path d="M17.5 7.5v1.5M17.5 12v1.5M15.5 10.5H14M21 10.5h-1.5"/>
    </symbol>
    <symbol id="person" viewBox="0 0 24 24">
        <circle cx="12" cy="8" r="3"/>
        <path d="M5 19a7 7 0 0 1 14 0"/>
    </symbol>
    <symbol id="receipt_long" viewBox="0 0 24 24">
        <path d="M7 4h10v16l-2-1.5L13 20l-1-1.5L11 20l-2-1.5L7 20z"/>
        <path d="M9.5 8H14.5M9.5 11.5H14.5M9.5 15H13"/>
    </symbol>
    <symbol id="save" viewBox="0 0 24 24">
        <path d="M5 5h11l3 3v11a2 2 0 0 1-2 2H7a2 2 0 0 1-2-2z"/>
        <path d="M8 5v5h7V5"/>
        <path d="M9 18h6"/>
    </symbol>
    <symbol id="settings" viewBox="0 0 24 24">
        <circle cx="12" cy="12" r="2.5"/>
        <path d="M12 4.5v2M12 17.5v2M4.5 12h2M17.5 12h2M6.8 6.8l1.4 1.4M15.8 15.8l1.4 1.4M17.2 6.8l-1.4 1.4M8.2 15.8l-1.4 1.4"/>
    </symbol>
    <symbol id="subdirectory_arrow_right" viewBox="0 0 24 24">
        <path d="M5 6v6a2 2 0 0 0 2 2h9"/>
        <path d="M13 11l3 3-3 3"/>
    </symbol>
    <symbol id="tag" viewBox="0 0 24 24">
        <path d="M4 12l8-8h7l1 7-8 8z"/>
        <circle cx="15.5" cy="8.5" r="1"/>
    </symbol>
    <symbol id="today" viewBox="0 0 24 24">
        <path d="M7 4v3M17 4v3M4 9h16"/>
        <rect x="4" y="5.5" width="16" height="14.5" rx="2"/>
        <rect x="8" y="12" width="4" height="4" rx="1"/>
    </symbol>
    <symbol id="unfold_more" viewBox="0 0 24 24">
        <path d="M9 8l3-3 3 3M9 16l3 3 3-3"/>
    </symbol>
    <symbol id="update" viewBox="0 0 24 24">
        <path d="M5 8V4h4"/>
        <path d="M5.5 5.5A8 8 0 1 1 4 12"/>
        <path d="M12 8v4l2.5 1.5"/>
    </symbol>
    <symbol id="verified" viewBox="0 0 24 24">
        <path d="M12 3l7 3v5c0 4.5-2.8 7.7-7 10-4.2-2.3-7-5.5-7-10V6z"/>
        <path d="M9.2 12.2l2 2L15 10.5"/>
    </symbol>
    <symbol id="visibility" viewBox="0 0 24 24">
        <path d="M3 12s3.5-6 9-6 9 6 9 6-3.5 6-9 6-9-6-9-6z"/>
        <circle cx="12" cy="12" r="2.5"/>
    </symbol>
    <symbol id="visibility_off" viewBox="0 0 24 24">
        <path d="M3 12s3.5-6 9-6 9 6 9 6-3.5 6-9 6-9-6-9-6z"/>
        <circle cx="12" cy="12" r="2.5"/>
        <path d="M4 4l16 16"/>
    </symbol>
    <symbol id="warning" viewBox="0 0 24 24">
        <path d="M12 4l8 14H4z"/>
        <path d="M12 9v4.5"/>
        <circle cx="12" cy="16.5" r="0.75"/>
    </symbol>
    <symbol id="auto_fix" viewBox="0 0 24 24">
        <path d="M12 4l1.4 3.6L17 9l-3.6 1.4L12 14l-1.4-3.6L7 9l3.6-1.4z"/>
        <path d="M18 14l.8 2.2L21 17l-2.2.8L18 20l-.8-2.2L15 17l2.2-.8z"/>
    </symbol>
    <symbol id="grade" viewBox="0 0 24 24">
        <path d="M12 4.5l2.2 4.5 5 .7-3.6 3.5.9 4.8L12 16l-4.5 2.5.9-4.8-3.6-3.5 5-.7z"/>
    </symbol>
    <symbol id="more_vert" viewBox="0 0 24 24">
        <circle cx="12" cy="6" r="1.5"/>
        <circle cx="12" cy="12" r="1.5"/>
        <circle cx="12" cy="18" r="1.5"/>
    </symbol>
    <symbol id="payments" viewBox="0 0 24 24">
        <rect x="4" y="6" width="16" height="12" rx="2"/>
        <path d="M4 10h16"/>
        <path d="M8 14h4"/>
    </symbol>
    <symbol id="security" viewBox="0 0 24 24">
        <path d="M12 3l7 3v5c0 4.5-2.8 7.7-7 10-4.2-2.3-7-5.5-7-10V6z"/>
        <path d="M12 9v4"/>
        <circle cx="12" cy="16" r="0.8"/>
    </symbol>
    <symbol id="stars" viewBox="0 0 24 24">
        <path d="M12 4.5l1.8 3.7 4.2.6-3 2.9.7 4.1L12 14l-3.7 1.8.7-4.1-3-2.9 4.2-.6z"/>
        <path d="M5 4.5l.8 1.6 1.7.2-1.2 1.2.3 1.7L5 8.4l-1.6.8.3-1.7L2.5 6.3l1.7-.2z"/>
        <path d="M19 14.5l.8 1.6 1.7.2-1.2 1.2.3 1.7-1.6-.8-1.6.8.3-1.7-1.2-1.2 1.7-.2z"/>
    </symbol>
    <symbol id="support_agent" viewBox="0 0 24 24">
        <path d="M6 12a6 6 0 1 1 12 0"/>
        <path d="M6 13H4v3h3"/>
        <path d="M18 16h2v-3h-2"/>
        <path d="M9 18h6"/>
        <path d="M9 11a3 3 0 0 1 6 0"/>
    </symbol>
    <symbol id="thumb_up" viewBox="0 0 24 24">
        <path d="M10 21H6a2 2 0 0 1-2-2v-7a2 2 0 0 1 2-2h4"/>
        <path d="M10 10l3-6 1 1v4h4a2 2 0 0 1 2 2l-1 6a2 2 0 0 1-2 2h-7z"/>
    </symbol>
    <symbol id="bolt" viewBox="0 0 24 24">
        <path d="M13 3L6 13h4l-1 8 9-12h-5z"/>
    </symbol>
    <symbol id="calendar_month" viewBox="0 0 24 24">
        <path d="M7 4v3M17 4v3M4 9h16"/>
        <rect x="4" y="5.5" width="16" height="14.5" rx="2"/>
        <path d="M8 12h3M13 12h3M8 16h3M13 16h3"/>
    </symbol>
    <symbol id="description" viewBox="0 0 24 24">
        <path d="M7 4h7l4 4v12H7z"/>
        <path d="M14 4v4h4"/>
        <path d="M9 12h6M9 15h6"/>
    </symbol>
    <symbol id="edit_note" viewBox="0 0 24 24">
        <path d="M4 7h8M4 11h8M4 15h5"/>
        <path d="M13.5 14.5l4.8-4.8a1.4 1.4 0 1 1 2 2l-4.8 4.8-3.5 1z"/>
    </symbol>
    <symbol id="inbox" viewBox="0 0 24 24">
        <path d="M4 6h16v10a2 2 0 0 1-2 2H6a2 2 0 0 1-2-2z"/>
        <path d="M4 13h4l2 3h4l2-3h4"/>
    </symbol>
    <symbol id="monitoring" viewBox="0 0 24 24">
        <path d="M5 19V8M10 19V5M15 19v-7M20 19v-11"/>
    </symbol>
    <symbol id="person_check" viewBox="0 0 24 24">
        <circle cx="10" cy="8" r="3"/>
        <path d="M4.5 18a5.5 5.5 0 0 1 8.5-4.7"/>
        <path d="M15 12.5l1.8 1.8 3.2-3.3"/>
    </symbol>
    <symbol id="mail" viewBox="0 0 24 24">
        <rect x="4" y="6" width="16" height="12" rx="2"/>
        <path d="M5.5 8l6.5 5 6.5-5"/>
    </symbol>
    <symbol id="sms" viewBox="0 0 24 24">
        <path d="M5 6.5A2.5 2.5 0 0 1 7.5 4h9A2.5 2.5 0 0 1 19 6.5v7A2.5 2.5 0 0 1 16.5 16H10l-4 4v-4.5A2.5 2.5 0 0 1 5 13.5z"/>
        <path d="M8.5 8.5h7M8.5 11.5h5"/>
    </symbol>
    <symbol id="verified" viewBox="0 0 24 24">
        <path d="M12 3l3 1.5 3.5.3.7 3.4L21 11l-1.8 2.8-.7 3.4-3.5.3L12 19l-3-1.5-3.5-.3-.7-3.4L3 11l1.8-2.8.7-3.4L9 4.5z"/>
        <path d="M8.5 11.8l2.2 2.2 4.8-4.9"/>
    </symbol>
    <symbol id="key" viewBox="0 0 24 24">
        <circle cx="8.5" cy="12" r="3.5"/>
        <path d="M12 12h8"/>
        <path d="M16 12v3M19 12v2"/>
    </symbol>
    <symbol id="lock_clock" viewBox="0 0 24 24">
        <rect x="5" y="11" width="10" height="8" rx="2"/>
        <path d="M8 11V8a2 2 0 1 1 4 0v3"/>
        <circle cx="18" cy="15" r="3"/>
        <path d="M18 13.5v1.7l1.2.8"/>
    </symbol>
    <symbol id="lock_reset" viewBox="0 0 24 24">
        <rect x="6" y="11" width="12" height="8" rx="2"/>
        <path d="M9 11V8a3 3 0 1 1 6 0v3"/>
        <path d="M4.5 8.5V5.5h3"/>
        <path d="M4.7 8.2A6.5 6.5 0 0 1 11 3.5"/>
    </symbol>
    <symbol id="progress_activity" viewBox="0 0 24 24">
        <path d="M12 4a8 8 0 1 0 8 8" />
        <path d="M12 2v4M22 12h-4M19.8 4.2l-2.8 2.8"/>
    </symbol>
    <symbol id="search_off" viewBox="0 0 24 24">
        <circle cx="11" cy="11" r="5.5"/>
        <path d="M16 16l4 4"/>
        <path d="M4 4l16 16"/>
    </symbol>
    <symbol id="send" viewBox="0 0 24 24">
        <path d="M4 20l16-8L4 4l2 6 7 2-7 2z"/>
    </symbol>
    <symbol id="visibility" viewBox="0 0 24 24">
        <path d="M2.5 12s3.5-6 9.5-6 9.5 6 9.5 6-3.5 6-9.5 6-9.5-6-9.5-6z"/>
        <circle cx="12" cy="12" r="2.8"/>
    </symbol>
    <symbol id="visibility_off" viewBox="0 0 24 24">
        <path d="M3 4l18 16"/>
        <path d="M10.6 6.4A10.7 10.7 0 0 1 12 6c6 0 9.5 6 9.5 6a16.8 16.8 0 0 1-3.4 3.9"/>
        <path d="M6.6 7.5C4.1 9.2 2.5 12 2.5 12s3.5 6 9.5 6c1.8 0 3.4-.5 4.8-1.2"/>
        <path d="M9.9 10a3 3 0 0 0 4.1 4.1"/>
    </symbol>
    <symbol id="trending_down" viewBox="0 0 24 24">
        <path d="M4 8l6 6 4-4 6 7"/>
        <path d="M15 17h5v-5"/>
    </symbol>
    <symbol id="timer" viewBox="0 0 24 24">
        <circle cx="12" cy="13" r="7"/>
        <path d="M12 13l3-2"/>
        <path d="M9 3h6"/>
        <path d="M12 6V3"/>
    </symbol>
    <symbol id="track_changes" viewBox="0 0 24 24">
        <circle cx="12" cy="12" r="7"/>
        <circle cx="12" cy="12" r="2.5"/>
        <path d="M12 3v2.5M12 18.5V21M3 12h2.5M18.5 12H21"/>
    </symbol>
    <symbol id="health_and_safety" viewBox="0 0 24 24">
        <path d="M12 3l7 3v5c0 4.4-2.8 8.4-7 9.8-4.2-1.4-7-5.4-7-9.8V6z"/>
        <path d="M12 8v6M9 11h6"/>
    </symbol>
    <symbol id="school" viewBox="0 0 24 24">
        <path d="M3 9l9-4 9 4-9 4z"/>
        <path d="M7 11.5v3.5c0 1.7 2.2 3 5 3s5-1.3 5-3v-3.5"/>
        <path d="M21 10v5"/>
    </symbol>
    <symbol id="home_work" viewBox="0 0 24 24">
        <path d="M3 20h18"/>
        <path d="M5 20v-7l4-3 4 3v7"/>
        <path d="M14 20V8l4-2 2 1v13"/>
        <path d="M8 16h2M16 10h1.5M16 13h1.5"/>
    </symbol>
    <symbol id="volunteer_activism" viewBox="0 0 24 24">
        <path d="M12 11s-3-2-3-4.5A2.5 2.5 0 0 1 12 4a2.5 2.5 0 0 1 3 2.5C15 9 12 11 12 11z"/>
        <path d="M4 15.5l3-2.5 3 1 2 2 2-1 3 1 3-1.5"/>
        <path d="M4 17.5l4 2h5l5-3 2 .5"/>
    </symbol>
    <symbol id="diversity_3" viewBox="0 0 24 24">
        <circle cx="7" cy="9" r="2"/>
        <circle cx="17" cy="9" r="2"/>
        <circle cx="12" cy="7" r="2.2"/>
        <path d="M3.5 18a3.5 3.5 0 0 1 7 0M13.5 18a3.5 3.5 0 0 1 7 0M8 18a4 4 0 0 1 8 0"/>
    </symbol>
    <symbol id="lightbulb" viewBox="0 0 24 24">
        <path d="M9 18h6"/>
        <path d="M10 21h4"/>
        <path d="M8.5 14.5c-1.3-1-2.5-2.8-2.5-5a6 6 0 1 1 12 0c0 2.2-1.2 4-2.5 5-.8.7-1.5 1.4-1.5 2.5h-4c0-1.1-.7-1.8-1.5-2.5z"/>
    </symbol>
    <symbol id="handshake" viewBox="0 0 24 24">
        <path d="M4 12l3-3 3 2 3-2 3 2 3-2 1 1"/>
        <path d="M7 15l2 2M10 14l2 2M13 13l2 2"/>
        <path d="M3 13l3 3M21 11l-3 3"/>
    </symbol>
    <symbol id="star" viewBox="0 0 24 24">
        <path d="M12 4.5l2.3 4.7 5.2.8-3.8 3.7.9 5.3-4.6-2.4-4.6 2.4.9-5.3-3.8-3.7 5.2-.8z"/>
    </symbol>
    <symbol id="folder_open" viewBox="0 0 24 24">
        <path d="M3 19l2.3-8h15.2A1.5 1.5 0 0 1 22 12.8L20.5 19z"/>
        <path d="M3 19V7.5A1.5 1.5 0 0 1 4.5 6H9l2 2h6.5A1.5 1.5 0 0 1 19 9.5V11"/>
    </symbol>
    <symbol id="business" viewBox="0 0 24 24">
        <path d="M3 20h18"/>
        <path d="M6 20V5h12v15"/>
        <path d="M9 8h2M9 11h2M9 14h2M13 8h2M13 11h2M13 14h2"/>
    </symbol>
    <symbol id="token" viewBox="0 0 24 24">
        <path d="M12 3l6 3.5v7L12 17l-6-3.5v-7z"/>
        <path d="M12 7.5v5M9.5 10h5"/>
    </symbol>
    <symbol id="content_copy" viewBox="0 0 24 24">
        <rect x="9" y="9" width="10" height="11" rx="2"/>
        <rect x="5" y="4" width="10" height="11" rx="2"/>
    </symbol>
    <symbol id="location_on" viewBox="0 0 24 24">
        <path d="M12 21s6-5.4 6-11a6 6 0 1 0-12 0c0 5.6 6 11 6 11z"/>
        <circle cx="12" cy="10" r="2.2"/>
    </symbol>
    <symbol id="refresh" viewBox="0 0 24 24">
        <path d="M20 5v5h-5"/>
        <path d="M4 19v-5h5"/>
        <path d="M19 10a7 7 0 0 0-12-2M5 14a7 7 0 0 0 12 2"/>
    </symbol>
    <symbol id="event" viewBox="0 0 24 24">
        <path d="M7 4v3M17 4v3M4 9h16"/>
        <rect x="4" y="5.5" width="16" height="14.5" rx="2"/>
        <rect x="8" y="12" width="4" height="4" rx="1"/>
    </symbol>
    <symbol id="checklist" viewBox="0 0 24 24">
        <path d="M9 7h8M9 12h8M9 17h8"/>
        <path d="M4.5 7l1.5 1.5L8 6.5M4.5 12l1.5 1.5L8 11.5M4.5 17l1.5 1.5L8 16.5"/>
    </symbol>
    <symbol id="card_giftcard" viewBox="0 0 24 24">
        <rect x="3" y="8" width="18" height="12" rx="2"/>
        <path d="M12 8v12M3 12h18"/>
        <path d="M12 8h-2.5a2 2 0 1 1 0-4c1.8 0 2.5 2 2.5 4z"/>
        <path d="M12 8h2.5a2 2 0 1 0 0-4c-1.8 0-2.5 2-2.5 4z"/>
    </symbol>
    <symbol id="public" viewBox="0 0 24 24">
        <circle cx="12" cy="12" r="9"/>
        <path d="M3.5 12h17M12 3a14 14 0 0 1 0 18M12 3a14 14 0 0 0 0 18"/>
    </symbol>
    <symbol id="alternate_email" viewBox="0 0 24 24">
        <path d="M16.5 17.5A7.5 7.5 0 1 1 18 8v5a2 2 0 0 1-4 0v-1"/>
        <circle cx="12" cy="12" r="3"/>
    </symbol>
    <symbol id="work" viewBox="0 0 24 24">
        <rect x="4" y="7" width="16" height="11" rx="2"/>
        <path d="M9 7V5h6v2"/>
        <path d="M4 11h16"/>
    </symbol>
    <symbol id="work_outline" viewBox="0 0 24 24">
        <rect x="4" y="7" width="16" height="11" rx="2"/>
        <path d="M9 7V5h6v2"/>
        <path d="M4 11h16"/>
    </symbol>
    <symbol id="flag" viewBox="0 0 24 24">
        <path d="M6 4v16"/>
        <path d="M6 5h9l-1.5 3L15 11H6z"/>
    </symbol>
    <symbol id="outlined_flag" viewBox="0 0 24 24">
        <path d="M6 4v16"/>
        <path d="M6 5h9l-1.5 3L15 11H6"/>
    </symbol>
    <symbol id="link" viewBox="0 0 24 24">
        <path d="M10 14l4-4"/>
        <path d="M8.5 15.5l-1.8 1.8a3 3 0 0 1-4.2-4.2l1.8-1.8a3 3 0 0 1 4.2 0"/>
        <path d="M15.5 8.5l1.8-1.8a3 3 0 0 1 4.2 4.2l-1.8 1.8a3 3 0 0 1-4.2 0"/>
    </symbol>
    <symbol id="phone" viewBox="0 0 24 24">
        <path d="M6.6 4h3l1.1 4-1.9 1.9a14 14 0 0 0 5.2 5.2l1.9-1.9 4 1.1v3a2 2 0 0 1-2.2 2A17.8 17.8 0 0 1 4.6 6.2 2 2 0 0 1 6.6 4z"/>
    </symbol>
    <symbol id="undo" viewBox="0 0 24 24">
        <path d="M9 7L5 11l4 4"/>
        <path d="M5 11h8a6 6 0 1 1 0 12h-1"/>
    </symbol>
    <symbol id="workspace_premium" viewBox="0 0 24 24">
        <circle cx="12" cy="9" r="5"/>
        <path d="M8 14l-1 6 5-2.2L17 20l-1-6"/>
        <path d="M12 6.8l.9 1.8 2 .3-1.5 1.4.4 2-1.8-1-1.8 1 .4-2-1.5-1.4 2-.3z"/>
    </symbol>
    <symbol id="account_balance" viewBox="0 0 24 24">
        <path d="M4 20h16M4 10h16M12 4l9 6H3z"/>
        <path d="M6 10v7M10 10v7M14 10v7M18 10v7"/>
    </symbol>
    <symbol id="analytics" viewBox="0 0 24 24">
        <path d="M19 3H5c-1.1 0-2 .9-2 2v14c0 1.1.9 2 2 2h14c1.1 0 2-.9 2-2V5c0-1.1-.9-2-2-2zM9 17H7v-7h2v7zm4 0h-2V7h2v10zm4 0h-2v-4h2v4z"/>
    </symbol>
    <symbol id="assessment" viewBox="0 0 24 24">
        <path d="M19 3H5c-1.1 0-2 .9-2 2v14c0 1.1.9 2 2 2h14c1.1 0 2-.9 2-2V5c0-1.1-.9-2-2-2zM9 17H7v-7h2v7zm4 0h-2V7h2v10zm4 0h-2v-4h2v4z"/>
    </symbol>
    <symbol id="archive" viewBox="0 0 24 24">
        <path d="M20.54 5.23l-1.39-1.68C18.88 3.21 18.47 3 18 3H6c-.47 0-.88.21-1.16.55L3.46 5.23C3.17 5.57 3 6.01 3 6.5V19c0 1.1.9 2 2 2h14c1.1 0 2-.9 2-2V6.5c0-.49-.17-.93-.46-1.27zM12 17.5L6.5 12H10v-2h4v2h3.5L12 17.5zM5.12 5l.81-1h12.06l.81 1H5.12z"/>
    </symbol>
    <symbol id="assignment" viewBox="0 0 24 24">
        <rect x="4" y="4" width="16" height="16" rx="2"/>
        <path d="M9 4h6v2H9z"/>
        <path d="M8 10h8M8 13h8M8 16h5"/>
    </symbol>
    <symbol id="assignment_late" viewBox="0 0 24 24">
        <rect x="4" y="4" width="16" height="16" rx="2"/>
        <path d="M9 4h6v2H9z"/>
        <path d="M12 10v3"/>
        <circle cx="12" cy="16" r="0.75"/>
    </symbol>
    <symbol id="auto_stories" viewBox="0 0 24 24">
        <path d="M12 6C10.5 4.5 8 4 5 4v13c3 0 5.5.5 7 2 1.5-1.5 4-2 7-2V4c-3 0-5.5.5-7 2z"/>
        <path d="M12 6v13"/>
    </symbol>
    <symbol id="avg_pace" viewBox="0 0 24 24">
        <circle cx="12" cy="12" r="9"/>
        <path d="M12 7v5l3.5 2"/>
        <path d="M16.5 5.5l2-2"/>
    </symbol>
    <symbol id="beach_access" viewBox="0 0 24 24">
        <circle cx="12" cy="12" r="9"/>
        <path d="M5.5 5.5l13 13"/>
        <path d="M6 12c0-4 3-7.5 6-8.5M12 20.5c3-1 6-4.5 6-8.5"/>
        <path d="M18.5 5.5L12 12"/>
    </symbol>
    <symbol id="build" viewBox="0 0 24 24">
        <path d="M14.7 6.3a1 1 0 0 0 0 1.4l1.6 1.6a1 1 0 0 0 1.4 0l3.77-3.77a6 6 0 0 1-7.94 7.94l-6.91 6.91a2.12 2.12 0 0 1-3-3l6.91-6.91a6 6 0 0 1 7.94-7.94l-3.76 3.76z"/>
    </symbol>
    <symbol id="calculate" viewBox="0 0 24 24">
        <rect x="4" y="3" width="16" height="18" rx="2"/>
        <path d="M8 7h8M8 11h2M8 15h2M14 11h2M14 15h2"/>
    </symbol>
    <symbol id="call" viewBox="0 0 24 24">
        <path d="M6.6 4h3l1.1 4-1.9 1.9a14 14 0 0 0 5.2 5.2l1.9-1.9 4 1.1v3a2 2 0 0 1-2.2 2A17.8 17.8 0 0 1 4.6 6.2 2 2 0 0 1 6.6 4z"/>
    </symbol>
    <symbol id="clear_all" viewBox="0 0 24 24">
        <path d="M5 8h14M7 12h10M9 16h6"/>
    </symbol>
    <symbol id="cloud_done" viewBox="0 0 24 24">
        <path d="M18 10a5 5 0 0 0-9.5-1A4 4 0 1 0 5 17h13a3 3 0 0 0 0-6z"/>
        <path d="M9 13.5l2 2 4-4"/>
    </symbol>
    <symbol id="data_table" viewBox="0 0 24 24">
        <rect x="3" y="4" width="18" height="16" rx="2"/>
        <path d="M3 9h18M3 14h18M9 9v11M15 9v11"/>
    </symbol>
    <symbol id="draft" viewBox="0 0 24 24">
        <path d="M7 4h7l4 4v12a2 2 0 0 1-2 2H7a2 2 0 0 1-2-2V6a2 2 0 0 1 2-2z"/>
        <path d="M14 4v4h4"/>
    </symbol>
    <symbol id="emoji_events" viewBox="0 0 24 24">
        <path d="M8 21h8M12 17v4"/>
        <path d="M7 4h10v6a5 5 0 0 1-10 0z"/>
        <path d="M7 8H5a2 2 0 0 1 0-4h2M17 8h2a2 2 0 0 0 0-4h-2"/>
    </symbol>
    <symbol id="event_busy" viewBox="0 0 24 24">
        <path d="M7 4v3M17 4v3M4 9h16"/>
        <rect x="4" y="5.5" width="16" height="14.5" rx="2"/>
        <path d="M9 12l6 6M15 12l-6 6"/>
    </symbol>
    <symbol id="event_note" viewBox="0 0 24 24">
        <path d="M7 4v3M17 4v3M4 9h16"/>
        <rect x="4" y="5.5" width="16" height="14.5" rx="2"/>
        <path d="M8 13h8M8 16h5"/>
    </symbol>
    <symbol id="filter_alt" viewBox="0 0 24 24">
        <path d="M5 7h14l-5.5 6.5V17l-3 2v-5.5z"/>
    </symbol>
    <symbol id="folder_off" viewBox="0 0 24 24">
        <path d="M4 19V7.5A1.5 1.5 0 0 1 5.5 6H9l2 2h6.5A1.5 1.5 0 0 1 19 9.5V17a2 2 0 0 1-2 2H6a2 2 0 0 1-2-2z"/>
        <path d="M4 4l16 16"/>
    </symbol>
    <symbol id="free_cancellation" viewBox="0 0 24 24">
        <path d="M7 4v3M17 4v3M4 9h16"/>
        <rect x="4" y="5.5" width="16" height="14.5" rx="2"/>
        <path d="M10 13l2 2 4-4"/>
    </symbol>
    <symbol id="grading" viewBox="0 0 24 24">
        <path d="M5 7h14M5 12h8M5 17h6"/>
        <path d="M16 14l2 2 3-3"/>
    </symbol>
    <symbol id="hail" viewBox="0 0 24 24">
        <circle cx="12" cy="4" r="2"/>
        <path d="M12 7v5l-3 8M12 12l4-2"/>
        <path d="M7 20l3-8"/>
    </symbol>
    <symbol id="history_edu" viewBox="0 0 24 24">
        <path d="M9 4H7a2 2 0 0 0-2 2v12a2 2 0 0 0 2 2h4"/>
        <path d="M13 4h2a2 2 0 0 1 2 2v4"/>
        <path d="M11 18l5.5-5.5 2.5 2.5L14 20h-3z"/>
    </symbol>
    <symbol id="hourglass_top" viewBox="0 0 24 24">
        <path d="M7 3h10"/>
        <path d="M7 3c0 4 5 5.5 5 9s-5 5-5 9h10c0-4-5-5-5-9s5-5 5-9"/>
        <path d="M7 21h10"/>
    </symbol>
    <symbol id="how_to_reg" viewBox="0 0 24 24">
        <circle cx="10" cy="8" r="3"/>
        <path d="M4.5 18a5.5 5.5 0 0 1 8.5-4.7"/>
        <path d="M15 14l2 2 4-4"/>
    </symbol>
    <symbol id="inventory" viewBox="0 0 24 24">
        <path d="M20 2H4c-1 0-2 .9-2 2v3.01c0 .72.43 1.34 1 1.69V20c0 1.1 1.1 2 2 2h14c.9 0 2-1 2-2V8.7c.57-.35 1-.97 1-1.69V4c0-1.1-1-2-2-2zm-5 12H9v-2h6v2zm5-7H4V4h16v3z"/>
    </symbol>
    <symbol id="inventory_2" viewBox="0 0 24 24">
        <path d="M20 2H4c-1 0-2 .9-2 2v3.01c0 .72.43 1.34 1 1.69V20c0 1.1 1.1 2 2 2h14c.9 0 2-1 2-2V8.7c.57-.35 1-.97 1-1.69V4c0-1.1-1-2-2-2zm-5 12H9v-2h6v2zm5-7H4V4h16v3z"/>
    </symbol>
    <symbol id="lock_open" viewBox="0 0 24 24">
        <rect x="6" y="10" width="12" height="10" rx="2"/>
        <path d="M9 10V8a3 3 0 0 1 6 0"/>
    </symbol>
    <symbol id="military_tech" viewBox="0 0 24 24">
        <path d="M12 3l2 4h4l-3 3 1 5-4-2-4 2 1-5-3-3h4z"/>
        <path d="M8 14l-1 7 5-2.5L17 21l-1-7"/>
    </symbol>
    <symbol id="move_down" viewBox="0 0 24 24">
        <path d="M7 5h10a2 2 0 0 1 2 2v0a2 2 0 0 1-2 2H7"/>
        <path d="M12 11v8M9 16l3 3 3-3"/>
    </symbol>
    <symbol id="note_add" viewBox="0 0 24 24">
        <path d="M7 4h7l4 4v12a2 2 0 0 1-2 2H7a2 2 0 0 1-2-2V6a2 2 0 0 1 2-2z"/>
        <path d="M14 4v4h4"/>
        <path d="M12 11v6M9 14h6"/>
    </symbol>
    <symbol id="pending" viewBox="0 0 24 24">
        <circle cx="12" cy="12" r="9"/>
        <circle cx="8" cy="12" r="1"/>
        <circle cx="12" cy="12" r="1"/>
        <circle cx="16" cy="12" r="1"/>
    </symbol>
    <symbol id="picture_as_pdf" viewBox="0 0 24 24">
        <rect x="4" y="4" width="16" height="16" rx="2"/>
        <path d="M8 8h2a1.5 1.5 0 0 1 0 3H8z"/>
        <path d="M8 8v8"/>
        <path d="M14 8h1.5A1.5 1.5 0 0 1 17 9.5v5a1.5 1.5 0 0 1-1.5 1.5H14z"/>
    </symbol>
    <symbol id="playlist_remove" viewBox="0 0 24 24">
        <path d="M5 7h10M5 12h7M5 17h4"/>
        <path d="M16 14l4 4M20 14l-4 4"/>
    </symbol>
    <symbol id="post_add" viewBox="0 0 24 24">
        <path d="M4 6h12M4 10h12M4 14h8M4 18h6"/>
        <path d="M18 12v8M14 16h8"/>
    </symbol>
    <symbol id="priority_high" viewBox="0 0 24 24">
        <path d="M12 4v10"/>
        <circle cx="12" cy="18.5" r="1.5"/>
    </symbol>
    <symbol id="privacy_tip" viewBox="0 0 24 24">
        <path d="M12 3l7 3v5c0 4.5-2.8 7.7-7 10-4.2-2.3-7-5.5-7-10V6z"/>
        <path d="M12 9v3"/>
        <circle cx="12" cy="15.5" r="0.75"/>
    </symbol>
    <symbol id="psychology" viewBox="0 0 24 24">
        <path d="M12 4a7 7 0 0 1 5 12v3H7v-3A7 7 0 0 1 12 4z"/>
        <circle cx="12" cy="11" r="2"/>
        <path d="M12 4v3M9 19H7M15 19h2"/>
    </symbol>
    <symbol id="publish" viewBox="0 0 24 24">
        <path d="M12 14V4"/>
        <path d="M8.5 7.5L12 4l3.5 3.5"/>
        <path d="M5 18h14"/>
    </symbol>
    <symbol id="schedule_alert" viewBox="0 0 24 24">
        <circle cx="12" cy="13" r="8"/>
        <path d="M12 9v4l2.5 1.5"/>
        <path d="M12 3v2"/>
    </symbol>
    <symbol id="shield" viewBox="0 0 24 24">
        <path d="M12 3l7 3v5c0 4.5-2.8 7.7-7 10-4.2-2.3-7-5.5-7-10V6z"/>
    </symbol>
    <symbol id="sync" viewBox="0 0 24 24">
        <path d="M20 8V4h-4"/>
        <path d="M4 16v4h4"/>
        <path d="M20 4a9 9 0 0 1-16 8M4 20a9 9 0 0 1 16-8"/>
    </symbol>
    <symbol id="thumb_down" viewBox="0 0 24 24">
        <path d="M14 3h4a2 2 0 0 1 2 2v7a2 2 0 0 1-2 2h-4"/>
        <path d="M14 14l-3 6-1-1v-4H6a2 2 0 0 1-2-2l1-6a2 2 0 0 1 2-2h7z"/>
    </symbol>
    <symbol id="toggle_off" viewBox="0 0 24 24">
        <rect x="2" y="7" width="20" height="10" rx="5"/>
        <circle cx="7" cy="12" r="3"/>
    </symbol>
    <symbol id="tune" viewBox="0 0 24 24">
        <path d="M4 7h4M12 7h8M4 12h10M18 12h2M4 17h2M10 17h10"/>
        <circle cx="10" cy="7" r="2"/>
        <circle cx="16" cy="12" r="2"/>
        <circle cx="8" cy="17" r="2"/>
    </symbol>
    <symbol id="work_off" viewBox="0 0 24 24">
        <rect x="4" y="7" width="16" height="11" rx="2"/>
        <path d="M9 7V5h6v2"/>
        <path d="M4 11h16"/>
        <path d="M4 4l16 16"/>
    </symbol>
    <symbol id="group_add" viewBox="0 0 24 24">
        <path d="M15 12c2.21 0 4-1.79 4-4s-1.79-4-4-4-4 1.79-4 4 1.79 4 4 4zm-9-2V7H4v3H1v2h3v3h2v-3h3v-2H6zm9 4c-2.67 0-8 1.34-8 4v2h16v-2c0-2.66-5.33-4-8-4z"/>
    </symbol>
    <symbol id="person_off" viewBox="0 0 24 24">
        <path d="M20 18.2L5.8 4 4.4 5.4l.7.7c-.7.6-1.1 1.6-1.1 2.9v2h16v-.6l2.6 2.6 1.4-1.4L20 18.2zM21 9h-6v2h6V9zM7 9a3 3 0 1 1 6 0 3 3 0 0 1-6 0zm-3.5 9c0-1.7 3.3-3 5-3 .3 0 .7.1 1 .2l2 2H3.5v.8z"/>
    </symbol>
    <symbol id="assignment_ind" viewBox="0 0 24 24">
        <rect x="4" y="4" width="16" height="16" rx="2"/>
        <path d="M9 4h6v2H9z"/>
        <circle cx="12" cy="11.5" r="2.5"/>
        <path d="M8 17c0-2 4-3.5 4-3.5s4 1.5 4 3.5"/>
    </symbol>
    <symbol id="assignment_late" viewBox="0 0 24 24">
        <rect x="4" y="4" width="16" height="16" rx="2"/>
        <path d="M9 4h6v2H9z"/>
        <path d="M12 10v3"/>
        <circle cx="12" cy="16" r="0.75"/>
    </symbol>
    <symbol id="person_cancel" viewBox="0 0 24 24">
        <path d="M12 2C6.48 2 2 6.48 2 12s4.48 10 10 10 10-4.48 10-10S17.52 2 12 2zm0 18c-4.41 0-8-3.59-8-8s3.59-8 8-8 8 3.59 8 8-3.59 8-8 8zm3.59-13L12 10.59 8.41 7 7 8.41 10.59 12 7 15.59 8.41 17 12 13.41 15.59 17 17 15.59 13.41 12 17 8.41 15.59 7z"/>
        <path d="M11 11H9v2h2v-2zM15 11h-2v2h2v-2z"/>
    </symbol>
</svg>
